<svg width="24" height="24" viewBox="0 0 24 24" fill="none" xmlns="http://www.w3.org/2000/svg">
<path fill-rule="evenodd" clip-rule="evenodd" d="M11.6206 2.00695C11.7465 2.00226 11.873 1.99989 12 1.99989C12.127 1.99989 12.2535 2.00226 12.3794 2.00695C12.4959 1.99287 12.6135 1.9996 12.7265 2.02588C17.9102 2.39804 22 6.72135 22 11.9999C22 17.2784 17.9102 21.6017 12.7265 21.9739C12.6135 22.0002 12.4959 22.0069 12.3794 21.9928C12.2535 21.9975 12.127 21.9999 12 21.9999C11.873 21.9999 11.7465 21.9975 11.6206 21.9928C11.504 22.0069 11.3865 22.0002 11.2735 21.9739C6.08979 21.6017 2 17.2784 2 11.9999C2 6.72136 6.08979 2.39806 11.2735 2.02588C11.3865 1.9996 11.504 1.99287 11.6206 2.00695ZM14.3753 19.6414C16.3116 19.0401 17.9329 17.7232 18.9297 15.9999H15.6277C15.3421 17.2533 14.9225 18.4742 14.3753 19.6414ZM13.5697 15.9999C13.2202 17.3535 12.6937 18.6601 12 19.8849C11.3063 18.6601 10.7797 17.3535 10.4302 15.9999H13.5697ZM15.9663 13.9999H19.748C19.9125 13.3607 20 12.6905 20 11.9999C20 11.3093 19.9125 10.6391 19.748 9.99989H15.9663C16.0404 10.6619 16.0778 11.3296 16.0778 11.9999C16.0778 12.6702 16.0404 13.3379 15.9663 13.9999ZM13.9523 9.99989C14.0356 10.661 14.0778 11.329 14.0778 11.9999C14.0778 12.6708 14.0356 13.3387 13.9523 13.9999H10.0477C9.96437 13.3387 9.92218 12.6708 9.92218 11.9999C9.92218 11.329 9.96437 10.661 10.0477 9.99989H13.9523ZM15.6277 7.99989H18.9297C17.9329 6.27658 16.3116 4.95964 14.3753 4.35841C14.9225 5.52554 15.3421 6.74652 15.6277 7.99989ZM13.5697 7.99989H10.4302C10.7797 6.64632 11.3063 5.33968 12 4.11493C12.6937 5.33968 13.2202 6.64632 13.5697 7.99989ZM9.62469 4.35842C7.68839 4.95965 6.06714 6.27659 5.07026 7.99989H8.37225C8.65792 6.74652 9.07745 5.52555 9.62469 4.35842ZM8.03363 9.99989H4.25203C4.08751 10.6391 4 11.3093 4 11.9999C4 12.6905 4.08751 13.3607 4.25204 13.9999H8.03363C7.95961 13.3379 7.92218 12.6702 7.92218 11.9999C7.92218 11.3296 7.95961 10.6619 8.03363 9.99989ZM8.37225 15.9999C8.65792 17.2533 9.07746 18.4742 9.62469 19.6414C7.68839 19.0401 6.06714 17.7232 5.07026 15.9999H8.37225Z" fill="white"/>
</svg>
